<svg id="Calque_1" data-name="Calque 1" xmlns="http://www.w3.org/2000/svg" xmlns:xlink="http://www.w3.org/1999/xlink" viewBox="0 0 800 800"><defs><style>.cls-1{fill:url(#Dégradé_sans_nom);}.cls-2{fill:url(#Dégradé_sans_nom_2);}.cls-3{fill:#f2f2f2;}.cls-4{fill:#bfbfbf;}.cls-5{fill:#a6a6a6;}</style><linearGradient id="Dégradé_sans_nom" x1="176.67" y1="432.05" x2="198" y2="432.05" gradientTransform="matrix(1, 0, 0, -1, 0, 800)" gradientUnits="userSpaceOnUse"><stop offset="0" stop-color="#d9d9d9"/><stop offset="1" stop-color="#ccc"/></linearGradient><linearGradient id="Dégradé_sans_nom_2" x1="592.1" y1="117.76" x2="229.22" y2="746.29" gradientTransform="matrix(1, 0, 0, -1, 0, 800)" gradientUnits="userSpaceOnUse"><stop offset="0" stop-color="#c7c7c7"/><stop offset="1" stop-color="#dedede"/></linearGradient></defs><title>book2</title><g id="Objects"><path class="cls-1" d="M198,664.22s-7.68-.18-13.6-.88a22.61,22.61,0,0,1-7.73-2.49V73.22a40,40,0,0,1,6.71-1c6.05-.41,14.62-.53,14.62-.53Z"/><polygon class="cls-2" points="623.32 664.22 198 664.22 198 71.73 410.52 71.73 623.32 71.73 623.32 664.22"/><rect class="cls-3" x="198.03" y="71.76" width="1.76" height="592.46"/><rect class="cls-4" x="196.29" y="71.76" width="1.76" height="592.46"/><polygon class="cls-3" points="200.17 72.82 410.52 72.82 621.15 72.82 623.32 71.73 410.52 71.73 198 71.73 200.17 72.82"/><polygon class="cls-5" points="200.17 663.12 410.52 663.12 621.15 663.12 623.32 664.2 410.52 664.2 198 664.2 200.17 663.12"/></g></svg>